<svg width="198" height="57" viewBox="0 0 198 57" fill="none" xmlns="http://www.w3.org/2000/svg">
<path fill-rule="evenodd" clip-rule="evenodd" d="M21.6394 54.8488C33.5905 54.8488 43.2786 45.2187 43.2786 33.3394C43.2786 21.46 33.5905 11.8299 21.6394 11.8299C9.68828 11.8299 0 21.46 0 33.3394C0 45.2187 9.68828 54.8488 21.6394 54.8488Z" fill="#B72E2E"/>
<path d="M24.985 45.4068C24.817 45.0287 24.67 44.6436 24.544 44.2515C24.418 43.8454 24.3201 43.4393 24.25 43.0332C23.5221 43.8734 22.633 44.5526 21.583 45.0707C20.547 45.5888 19.357 45.8479 18.013 45.8479C15.787 45.8479 14.0161 45.2457 12.7001 44.0414C11.3981 42.8231 10.7471 41.1707 10.7471 39.0842C10.7471 36.9556 11.6011 35.3103 13.3091 34.1479C15.0171 32.9856 17.523 32.4045 20.827 32.4045H23.956V30.1779C23.956 29.0857 23.6411 28.2385 23.011 27.6363C22.381 27.0342 21.45 26.7331 20.2181 26.7331C19.518 26.7331 18.895 26.8171 18.349 26.9852C17.803 27.1392 17.362 27.3282 17.026 27.5523L16.6271 29.9889H12.0071L12.0281 24.9477C13.1481 24.1914 14.4291 23.5543 15.871 23.0361C17.327 22.518 18.9091 22.2589 20.6171 22.2589C23.431 22.2589 25.713 22.9521 27.463 24.3384C29.227 25.7108 30.109 27.6713 30.109 30.22V39.6093C30.109 39.9594 30.109 40.2885 30.109 40.5966C30.123 40.9047 30.151 41.1987 30.193 41.4788L32.062 41.7309V45.4068H24.985ZM19.6721 41.3107C20.596 41.3107 21.436 41.1147 22.192 40.7227C22.9481 40.3165 23.536 39.8124 23.956 39.2102V35.7443H20.827C19.5251 35.7443 18.5381 36.0524 17.866 36.6686C17.194 37.2708 16.858 37.9989 16.858 38.8531C16.858 39.6233 17.103 40.2255 17.593 40.6596C18.097 41.0937 18.7901 41.3107 19.6721 41.3107Z" fill="#333333"/>
<path d="M67.813 43.2736C67.6785 42.9712 67.561 42.6631 67.4601 42.3494C67.3594 42.0246 67.281 41.6997 67.225 41.3748C66.6425 42.0469 65.9314 42.5902 65.0914 43.0048C64.2626 43.4192 63.3106 43.6266 62.2354 43.6266C60.4546 43.6266 59.0378 43.1448 57.985 42.1814C56.9434 41.2068 56.4226 39.8848 56.4226 38.2155C56.4226 36.5128 57.1058 35.1964 58.4722 34.2666C59.8386 33.3367 61.8434 32.8718 64.4866 32.8718H66.9898V31.0905C66.9898 30.2168 66.7378 29.539 66.2338 29.0573C65.7297 28.5756 64.9849 28.3347 63.9994 28.3347C63.4394 28.3347 62.941 28.4019 62.5042 28.5363C62.0674 28.6595 61.7146 28.8108 61.4458 28.99L61.1266 30.9393H57.4306L57.4474 26.9063C58.3434 26.3014 59.3682 25.7917 60.5218 25.3771C61.6866 24.9626 62.9522 24.7554 64.3186 24.7554C66.5697 24.7554 68.3954 25.31 69.7954 26.4189C71.2066 27.5168 71.9121 29.0853 71.9121 31.1241V38.6357C71.9121 38.9158 71.9121 39.179 71.9121 39.4255C71.9234 39.6719 71.9458 39.9072 71.9794 40.1312L73.4745 40.3329V43.2736H67.813ZM63.5626 39.9968C64.3018 39.9968 64.9737 39.84 65.5786 39.5263C66.1834 39.2014 66.6537 38.7981 66.9898 38.3164V35.5437H64.4866C63.445 35.5437 62.6554 35.7901 62.1178 36.2831C61.5802 36.7648 61.3114 37.3474 61.3114 38.0307C61.3114 38.6469 61.5074 39.1286 61.8994 39.4759C62.3026 39.8232 62.857 39.9968 63.5626 39.9968ZM74.7849 28.049V25.0914H81.9081L82.1433 27.2088C82.6809 26.4245 83.3249 25.8197 84.0753 25.3939C84.8257 24.9682 85.6993 24.7554 86.6961 24.7554C88.9473 24.7554 90.6944 25.6348 91.9377 27.3936C93.1808 29.1525 93.8024 31.4659 93.8024 34.3338V34.6866C93.8024 37.3754 93.1808 39.5375 91.9377 41.1732C90.6944 42.8088 88.9585 43.6266 86.7297 43.6266C85.7777 43.6266 84.932 43.4529 84.1929 43.1056C83.4537 42.7471 82.8209 42.2262 82.2945 41.5428V46.8025L84.6632 47.3066V50.2642H75.037V47.3066L77.4057 46.8025V28.5532L74.7849 28.049ZM88.8969 34.3338C88.8969 32.6198 88.6113 31.2306 88.0401 30.1664C87.4689 29.1021 86.5952 28.57 85.4193 28.57C84.6801 28.57 84.0473 28.7212 83.5209 29.0236C83.0057 29.3261 82.5969 29.7574 82.2945 30.3175V38.2828C82.5969 38.7981 83.0057 39.1902 83.5209 39.4591C84.0473 39.728 84.6913 39.8623 85.4529 39.8623C86.6401 39.8623 87.5081 39.3975 88.0569 38.4677C88.6169 37.5378 88.8969 36.2775 88.8969 34.6866V34.3338ZM104.689 43.6266C102.068 43.6266 99.9737 42.7863 98.4056 41.1059C96.8376 39.4255 96.0537 37.2914 96.0537 34.7035V34.0313C96.0537 31.3315 96.7928 29.1077 98.2713 27.36C99.7608 25.6123 101.754 24.7442 104.252 24.7554C106.705 24.7554 108.609 25.4948 109.964 26.9735C111.319 28.4523 111.997 30.452 111.997 32.9727V35.6445H101.144L101.11 35.7453C101.2 36.944 101.598 37.9299 102.303 38.7029C103.02 39.4759 103.989 39.8623 105.21 39.8623C106.296 39.8623 107.198 39.756 107.914 39.5431C108.631 39.319 109.415 38.9718 110.266 38.5012L111.594 41.526C110.843 42.1197 109.869 42.6182 108.67 43.0216C107.483 43.4248 106.156 43.6266 104.689 43.6266ZM104.252 28.5363C103.345 28.5363 102.628 28.8837 102.102 29.5782C101.575 30.2727 101.25 31.1858 101.127 32.3173L101.178 32.4013H107.192V31.9644C107.192 30.9225 106.946 30.0935 106.453 29.4773C105.971 28.85 105.238 28.5363 104.252 28.5363ZM113.962 28.049V25.0914H121.085L121.321 27.2088C121.858 26.4245 122.502 25.8197 123.253 25.3939C124.003 24.9682 124.877 24.7554 125.874 24.7554C128.125 24.7554 129.872 25.6348 131.115 27.3936C132.358 29.1525 132.98 31.4659 132.98 34.3338V34.6866C132.98 37.3754 132.358 39.5375 131.115 41.1732C129.872 42.8088 128.136 43.6266 125.907 43.6266C124.955 43.6266 124.109 43.4529 123.37 43.1056C122.631 42.7471 121.998 42.2262 121.472 41.5428V46.8025L123.841 47.3066V50.2642H114.214V47.3066L116.583 46.8025V28.5532L113.962 28.049ZM128.074 34.3338C128.074 32.6198 127.789 31.2306 127.218 30.1664C126.646 29.1021 125.773 28.57 124.597 28.57C123.857 28.57 123.225 28.7212 122.698 29.0236C122.183 29.3261 121.774 29.7574 121.472 30.3175V38.2828C121.774 38.7981 122.183 39.1902 122.698 39.4591C123.225 39.728 123.869 39.8623 124.63 39.8623C125.818 39.8623 126.686 39.3975 127.234 38.4677C127.794 37.5378 128.074 36.2775 128.074 34.6866V34.3338ZM143.866 43.6266C141.245 43.6266 139.151 42.7863 137.583 41.1059C136.015 39.4255 135.231 37.2914 135.231 34.7035V34.0313C135.231 31.3315 135.97 29.1077 137.449 27.36C138.938 25.6123 140.932 24.7442 143.429 24.7554C145.882 24.7554 147.786 25.4948 149.141 26.9735C150.497 28.4523 151.174 30.452 151.174 32.9727V35.6445H140.321L140.288 35.7453C140.377 36.944 140.775 37.9299 141.481 38.7029C142.197 39.4759 143.166 39.8623 144.387 39.8623C145.473 39.8623 146.375 39.756 147.092 39.5431C147.809 39.319 148.593 38.9718 149.444 38.5012L150.771 41.526C150.021 42.1197 149.046 42.6182 147.848 43.0216C146.661 43.4248 145.333 43.6266 143.866 43.6266ZM143.429 28.5363C142.522 28.5363 141.805 28.8837 141.279 29.5782C140.753 30.2727 140.428 31.1858 140.305 32.3173L140.355 32.4013H146.369V31.9644C146.369 30.9225 146.123 30.0935 145.63 29.4773C145.149 28.85 144.415 28.5363 143.429 28.5363ZM153.879 40.3329L156.231 39.8288V28.5532L153.627 28.049V25.0914H160.8L161.019 27.7466C161.445 26.8055 161.993 26.0717 162.665 25.5452C163.338 25.0187 164.116 24.7554 165.001 24.7554C165.258 24.7554 165.527 24.7777 165.807 24.8226C166.098 24.8562 166.339 24.901 166.53 24.957L166.008 29.427L163.992 29.3766C163.276 29.3766 162.682 29.5166 162.211 29.7966C161.741 30.0767 161.383 30.4744 161.136 30.9898V39.8288L163.488 40.3329V43.2736H153.879V40.3329ZM167.839 40.3329L170.209 39.8288V28.5532L167.587 28.049V25.0914H175.114V39.8288L177.466 40.3329V43.2736H167.839V40.3329ZM175.114 20.7391H170.209V17.059H175.114V20.7391ZM190.654 43.2736C190.52 42.9712 190.402 42.6631 190.301 42.3494C190.201 42.0246 190.122 41.6997 190.066 41.3748C189.483 42.0469 188.772 42.5902 187.932 43.0048C187.103 43.4192 186.152 43.6266 185.076 43.6266C183.296 43.6266 181.879 43.1448 180.826 42.1814C179.784 41.2068 179.264 39.8848 179.264 38.2155C179.264 36.5128 179.946 35.1964 181.313 34.2666C182.68 33.3367 184.685 32.8718 187.327 32.8718H189.831V31.0905C189.831 30.2168 189.579 29.539 189.075 29.0573C188.571 28.5756 187.826 28.3347 186.841 28.3347C186.281 28.3347 185.782 28.4019 185.346 28.5363C184.908 28.6595 184.555 28.8108 184.287 28.99L183.967 30.9393H180.272L180.288 26.9063C181.185 26.3014 182.209 25.7917 183.363 25.3771C184.527 24.9626 185.794 24.7554 187.159 24.7554C189.411 24.7554 191.236 25.31 192.637 26.4189C194.048 27.5168 194.753 29.0853 194.753 31.1241V38.6357C194.753 38.9158 194.753 39.179 194.753 39.4255C194.765 39.6719 194.787 39.9072 194.821 40.1312L196.316 40.3329V43.2736H190.654ZM186.404 39.9968C187.143 39.9968 187.815 39.84 188.42 39.5263C189.025 39.2014 189.495 38.7981 189.831 38.3164V35.5437H187.327C186.286 35.5437 185.496 35.7901 184.959 36.2831C184.421 36.7648 184.153 37.3474 184.153 38.0307C184.153 38.6469 184.349 39.1286 184.741 39.4759C185.144 39.8232 185.698 39.9968 186.404 39.9968Z" fill="white"/>
</svg>
